<?xml version="1.0" encoding="utf-8"?>
<!-- Generator: Adobe Illustrator 24.0.0, SVG Export Plug-In . SVG Version: 6.00 Build 0)  -->
<svg version="1.1" id="Layer_1" xmlns="http://www.w3.org/2000/svg" xmlns:xlink="http://www.w3.org/1999/xlink" x="0px" y="0px"
	 width="797px" height="134px" viewBox="0 0 797 134" style="enable-background:new 0 0 797 134;" xml:space="preserve">
<style type="text/css">
	.st0{fill:#EE0000;}
	.st1{fill:#D2D2D2;}
	.st2{fill:#151515;}
	.st3{enable-background:new    ;}
</style>
<title>ml-lifecycle</title>
<path class="st0" d="M102.5,18.5c1.3,0,2.4-1.1,2.4-2.4V6.4c0-1.3-1.1-2.3-2.4-2.3H32.4c-1.3,0-2.4,1-2.4,2.3c0,0,0,0,0,0l0,0V51
	c0,1.3,1.1,2.4,2.4,2.4c1.3,0,2.4-1.1,2.4-2.4V8.9h65.3V16C100.1,17.3,101.1,18.4,102.5,18.5L102.5,18.5z"/>
<path class="st0" d="M32.4,67.8c-1.3,0-2.4,1-2.4,2.3c0,0,0,0,0,0v6.4c0,1.3,1.1,2.4,2.4,2.4c0,0,0,0,0,0h70.1
	c1.3,0,2.4-1.1,2.4-2.4V38.3c0-1.3-1.1-2.4-2.4-2.4c-1.3,0-2.4,1.1-2.4,2.4v35.9H34.8v-4C34.8,68.9,33.7,67.9,32.4,67.8z"/>
<path class="st0" d="M107.2,18.8L69,56.5L53,40.6c-0.9-0.9-2.4-0.9-3.3,0l0,0L27.5,62.1c-0.9,0.9-1,2.4-0.1,3.4
	c0.5,0.5,1.1,0.7,1.8,0.7c0.6,0,1.2-0.3,1.7-0.7l20.4-20l15.9,15.9c0.9,0.9,2.4,0.9,3.4,0c0,0,0,0,0,0l39.8-39.4
	c0.9-0.9,1-2.3,0.1-3.3c-0.9-0.9-2.3-1-3.3-0.1C107.3,18.7,107.2,18.7,107.2,18.8z"/>
<path class="st0" d="M45.9,16v12.8c0,1.3,1.1,2.4,2.4,2.4c1.3,0,2.4-1.1,2.4-2.4V16c0-1.3-1.1-2.4-2.4-2.4
	C47,13.6,45.9,14.7,45.9,16z"/>
<path class="st0" d="M65.1,16v25.5c0,1.3,1.1,2.4,2.4,2.4c1.3,0,2.4-1.1,2.4-2.4V16c0-1.3-1.1-2.4-2.4-2.4
	C66.1,13.6,65.1,14.7,65.1,16z"/>
<path class="st0" d="M84.2,16v12.8c0,1.3,1.1,2.4,2.4,2.4c1.3,0,2.4-1.1,2.4-2.4V16c0-1.3-1.1-2.4-2.4-2.4
	C85.2,13.6,84.2,14.7,84.2,16z"/>
<path class="st0" d="M672.1,21.2c-13.6,0-24.6,11-24.6,24.6c0,13.6,11,24.6,24.6,24.6c13.6,0,24.6-11,24.6-24.6
	C696.7,32.3,685.7,21.3,672.1,21.2z M672.1,64c-10,0-18.2-8.1-18.2-18.2c0-10,8.1-18.2,18.2-18.2c10,0,18.2,8.1,18.2,18.2
	c0,0,0,0,0,0C690.3,55.9,682.2,64,672.1,64z"/>
<path class="st0" d="M740.5,21.2c-13.6,0-24.6,11-24.6,24.6c0,13.6,11,24.6,24.6,24.6c13.6,0,24.6-11,24.6-24.6
	C765.1,32.3,754.1,21.3,740.5,21.2z M740.5,64c-10,0-18.2-8.1-18.2-18.2c0-10,8.1-18.2,18.2-18.2c10,0,18.2,8.1,18.2,18.2
	c0,0,0,0,0,0C758.7,55.9,750.6,64,740.5,64z"/>
<path class="st0" d="M689.2,23.4h8.5c0.2,0,0.3-0.1,0.5-0.1c1.3,0.3,2.7-0.3,3.4-1.5c1.9-3.3,7.3-3.3,9.2,0c0.6,1,1.6,1.6,2.8,1.6
	c0.2,0,0.3-0.1,0.5-0.1c0.2,0.1,0.4,0.1,0.7,0.1h8.5c1.8,0.1,3.3-1.3,3.4-3s-1.3-3.3-3-3.4c-0.1,0-0.2,0-0.4,0h-8.2
	c-4-4.9-11.2-5.7-16.2-1.7c-0.6,0.5-1.2,1.1-1.7,1.7h-8.2c-1.8-0.1-3.3,1.3-3.4,3s1.3,3.3,3,3.4C689,23.4,689.1,23.4,689.2,23.4
	L689.2,23.4z"/>
<path class="st0" d="M712.8,55.5h-12.8c-1.8,0.1-3.1,1.6-3,3.4c0.1,1.6,1.4,2.9,3,3h12.8c1.8-0.1,3.1-1.6,3-3.4
	C715.7,56.8,714.4,55.5,712.8,55.5z"/>
<path class="st0" d="M672.1,34.1c-6.5,0-11.8,5.3-11.8,11.8c-0.1,1.8,1.3,3.3,3,3.4c1.8,0.1,3.3-1.3,3.4-3c0-0.1,0-0.2,0-0.4
	c0-3,2.4-5.3,5.3-5.3c1.8-0.1,3.1-1.6,3-3.4C675.1,35.5,673.8,34.2,672.1,34.1L672.1,34.1z"/>
<path class="st0" d="M740.5,34.1c-1.8,0.1-3.1,1.6-3,3.4c0.1,1.6,1.4,2.9,3,3c3,0,5.3,2.4,5.3,5.3c-0.1,1.8,1.3,3.3,3,3.4
	c1.8,0.1,3.3-1.3,3.4-3c0-0.1,0-0.2,0-0.4C752.3,39.3,747,34.1,740.5,34.1z"/>
<path class="st0" d="M521.5,38.7c-1.6-19-18.2-33.2-37.3-31.6c-10.7,0.9-20.4,6.7-26.2,15.7c-0.8-0.1-1.7-0.1-2.5,0
	c-14.7,0.3-26.5,12.5-26.2,27.2c0.3,14.3,11.8,25.9,26.2,26.2h63c10.4,0.1,18.9-8.2,19-18.6c0.1-9.4-6.7-17.4-16-18.8L521.5,38.7z
	 M518.6,70h-63c-11.4-0.3-20.5-9.7-20.2-21.1c0.2-11.1,9.1-20,20.2-20.2c1.2,0,2.4,0.1,3.5,0.4c1.3,0.2,2.5-0.4,3.1-1.5
	C470,13.8,487.4,9,501.1,16.8c8.9,5.1,14.4,14.5,14.4,24.7c0,1.7,1.3,3,3,3c7.1-0.1,12.9,5.5,13,12.5c0.1,6.7-4.9,12.3-11.6,12.9
	C519.5,70,519,70,518.6,70L518.6,70z"/>
<path class="st0" d="M485.9,29.8L485.9,29.8c-0.3-0.2-0.6-0.4-0.9-0.6l0,0c-0.3-0.1-0.7-0.1-1,0h-1.3c-0.3,0.1-0.6,0.3-0.9,0.6
	l-9.7,9.7c-1.2,1.2-1.2,3.1,0,4.3c1.2,1.2,3.1,1.2,4.2,0c0,0,0,0,0,0l4.5-4.5v17c0,1.7,1.3,3,3,3s3-1.3,3-3V39.3l4.5,4.5
	c1.2,1.2,3.1,1.2,4.3,0c1.2-1.2,1.2-3.1,0-4.3L485.9,29.8z"/>
<path class="st1" d="M180.4,43L180.4,43c0.2-0.3,0.4-0.6,0.6-0.9l0,0c0.1-0.3,0.1-0.7,0-1v-1.3c-0.1-0.3-0.3-0.6-0.6-0.9l-9.7-9.7
	c-1.2-1.2-3.1-1.2-4.3,0c-1.2,1.2-1.2,3.1,0,4.2c0,0,0,0,0,0L171,38h-16.9c-1.7,0-3,1.3-3,3s1.3,3,3,3H171l-4.5,4.5
	c-1.2,1.2-1.2,3.1,0,4.3c1.2,1.2,3.1,1.2,4.3,0l0,0L180.4,43z"/>
<path class="st1" d="M386.1,46L386.1,46c0.2-0.3,0.4-0.6,0.6-0.9l0,0c0.1-0.3,0.1-0.7,0-1v-1.3c-0.1-0.3-0.3-0.6-0.6-0.9l-9.7-9.7
	c-1.2-1.2-3.1-1.2-4.3,0c-1.2,1.2-1.2,3.1,0,4.2c0,0,0,0,0,0l4.5,4.5h-17c-1.7,0-3,1.3-3,3s1.3,3,3,3h16.9l-4.5,4.5
	c-1.2,1.2-1.2,3.1,0,4.3c1.2,1.2,3.1,1.2,4.3,0L386.1,46z"/>
<path class="st1" d="M607,51.2L607,51.2c0.2-0.3,0.4-0.6,0.6-0.9l0,0c0.1-0.3,0.1-0.7,0-1V48c-0.1-0.3-0.3-0.6-0.6-0.9l-9.7-9.7
	c-1.2-1.2-3.1-1.2-4.3,0c-1.2,1.2-1.2,3.1,0,4.2c0,0,0,0,0,0l4.5,4.5h-17c-1.7,0-3,1.3-3,3s1.3,3,3,3h16.9l-4.5,4.6
	c-1.2,1.2-1.2,3.1,0,4.3c1.2,1.2,3.1,1.2,4.3,0L607,51.2z"/>
<path class="st0" d="M298.9,23.6c-9.9,0-18,8.1-17.9,18s8.1,18,18,17.9c9.9,0,18-8.1,17.9-18c0-9.9-8-17.9-17.9-17.9H298.9z
	 M298.9,54.7c-7.3,0-13.2-5.9-13.2-13.2s5.9-13.2,13.2-13.2s13.2,5.9,13.2,13.2c0,0,0,0,0,0v0.1C312.1,48.9,306.2,54.7,298.9,54.7z"
	/>
<path class="st0" d="M245.6,17.6C258.1,6,277.5,6,290,17.6c0.4,0.4,1,0.6,1.6,0.6c0.7,0,1.3-0.3,1.8-0.7c0.9-0.9,0.9-2.5,0-3.4
	c0,0,0,0,0,0c-14.4-13.4-36.6-13.4-51,0c-0.8,1-0.7,2.5,0.3,3.4C243.5,18.2,244.7,18.3,245.6,17.6L245.6,17.6z"/>
<path class="st0" d="M290,65.5c-12.5,11.6-31.9,11.6-44.4,0c-0.8-1-2.3-1.2-3.4-0.4c-1,0.8-1.2,2.3-0.4,3.4l0,0
	c0.2,0.2,0.4,0.4,0.6,0.5c14.4,13.4,36.6,13.4,51,0c1-0.9,1.1-2.4,0.3-3.4c-0.7-0.8-1.9-1.1-2.9-0.6c-0.2,0.1-0.4,0.3-0.6,0.5
	L290,65.5z"/>
<path class="st0" d="M231.1,29.5c-4.9,0-8.8,4-8.8,8.8s4,8.8,8.8,8.8s8.8-4,8.8-8.8C239.9,33.4,236,29.5,231.1,29.5L231.1,29.5z
	 M231.1,42.3c-2.2,0-4-1.8-4-4s1.8-4,4-4s4,1.8,4,4v0.1C235.1,40.6,233.3,42.3,231.1,42.3z"/>
<path class="st0" d="M250.4,40.7c4.9,0,8.8-3.9,8.8-8.8c0-4.9-3.9-8.8-8.8-8.8s-8.8,3.9-8.8,8.8V32
	C241.6,36.8,245.5,40.7,250.4,40.7z M250.4,27.9c2.2,0,4,1.8,4,4s-1.8,4-4,4c-2.2,0-4-1.7-4-3.9C246.3,29.8,248.1,27.9,250.4,27.9z"
	/>
<path class="st0" d="M256,51.2c0-4.9-3.9-8.9-8.8-8.9c-4.9,0-8.9,3.9-8.9,8.8c0,4.9,3.9,8.8,8.7,8.9h0.1C252,60,256,56.1,256,51.2z
	 M243.2,51.2c0-2.2,1.8-4,4-4c2.2,0,4,1.8,4,4c0,2.2-1.7,4-3.9,4h-0.1C245,55.2,243.2,53.5,243.2,51.2
	C243.1,51.2,243.1,51.2,243.2,51.2L243.2,51.2z"/>
<path class="st0" d="M260.9,39.3c-0.9-0.4-1.9-0.2-2.6,0.5c-0.2,0.2-0.4,0.5-0.5,0.8c-0.3,0.6-0.3,1.3,0,1.9
	c0.1,0.3,0.3,0.6,0.5,0.8c0.2,0.2,0.5,0.4,0.8,0.5c1.2,0.5,2.6-0.1,3.1-1.3S262.1,39.8,260.9,39.3z"/>
<path class="st0" d="M236.6,27.7c0.3,0.1,0.6,0.2,0.9,0.2c0.3,0,0.6-0.1,0.9-0.2c0.3-0.1,0.5-0.3,0.8-0.5c0.9-0.9,0.9-2.5,0-3.4
	c0,0,0,0,0,0c-0.2-0.2-0.5-0.4-0.8-0.5c-1.2-0.5-2.6,0.1-3.1,1.3c-0.4,0.9-0.2,1.9,0.5,2.6C236,27.4,236.3,27.6,236.6,27.7z"/>
<path class="st0" d="M230.2,52.2c-1.2,0.5-1.8,1.9-1.3,3.1c0.2,0.6,0.7,1,1.3,1.3c0.3,0.1,0.6,0.2,0.9,0.2c0.6,0,1.2-0.3,1.7-0.7
	c0.9-1,0.9-2.5-0.1-3.4C232.1,52,231.1,51.8,230.2,52.2L230.2,52.2z"/>
<path class="st2" d="M10.3,89.6h4.1c3.2,0,5.6,2.4,5.6,5.6c0,3.2-2.4,5.6-5.6,5.6h-4.1V89.6z M12.2,91.2v7.9h2.2
	c2,0,3.6-1.7,3.6-3.9c0-2.2-1.6-4-3.6-4H12.2z"/>
<path class="st2" d="M21.4,98.5c0-1.4,1.2-2.4,3.1-2.4c0.8,0,1.4,0.2,2.2,0.5v-0.9c0-1.1-0.6-1.6-1.8-1.6c-0.7,0-1.4,0.2-2.3,0.6
	l-0.6-1.3c1.2-0.6,2.3-0.8,3.3-0.8c2.1,0,3.3,1.1,3.3,2.9v5.2h-1.8V100c-0.7,0.7-1.5,0.9-2.4,0.9C22.5,100.9,21.4,99.9,21.4,98.5z
	 M24.7,99.7c0.7,0,1.3-0.2,1.9-0.7v-1.3c-0.6-0.3-1.2-0.4-1.9-0.4c-1,0-1.7,0.4-1.7,1.2C23.1,99.2,23.7,99.7,24.7,99.7z"/>
<path class="st2" d="M31.3,94.2h-1.6v-1.4h1.6v-2.2l1.8-0.4v2.6h2.2v1.4h-2.2v4.1c0,0.8,0.3,1.1,1.1,1.1c0.4,0,0.6,0,1.1-0.2v1.5
	c-0.5,0.1-1.1,0.2-1.6,0.2c-1.6,0-2.5-0.8-2.5-2.2V94.2z"/>
<path class="st2" d="M36.5,98.5c0-1.4,1.2-2.4,3.1-2.4c0.8,0,1.4,0.2,2.2,0.5v-0.9c0-1.1-0.6-1.6-1.8-1.6c-0.7,0-1.4,0.2-2.3,0.6
	l-0.6-1.3c1.2-0.6,2.3-0.8,3.3-0.8c2.1,0,3.3,1.1,3.3,2.9v5.2h-1.8V100c-0.7,0.7-1.5,0.9-2.4,0.9C37.6,100.9,36.5,99.9,36.5,98.5z
	 M39.8,99.7c0.7,0,1.3-0.2,1.9-0.7v-1.3c-0.6-0.3-1.2-0.4-1.9-0.4c-1,0-1.7,0.4-1.7,1.2C38.2,99.2,38.8,99.7,39.8,99.7z"/>
<path class="st2" d="M48.9,98.5c0-1.4,1.2-2.4,3.1-2.4c0.8,0,1.4,0.2,2.2,0.5v-0.9c0-1.1-0.6-1.6-1.8-1.6c-0.7,0-1.4,0.2-2.3,0.6
	l-0.6-1.3c1.2-0.6,2.3-0.8,3.3-0.8c2.1,0,3.3,1.1,3.3,2.9v5.2h-1.8V100c-0.7,0.7-1.5,0.9-2.4,0.9C50,100.9,48.9,99.9,48.9,98.5z
	 M52.2,99.7c0.7,0,1.3-0.2,1.9-0.7v-1.3c-0.6-0.3-1.2-0.4-1.9-0.4c-1,0-1.7,0.4-1.7,1.2C50.6,99.2,51.2,99.7,52.2,99.7z"/>
<path class="st2" d="M63.9,98.5l1.1,1.1c-0.8,0.9-1.9,1.4-3.1,1.4c-2.3,0-4-1.8-4-4.2c0-2.3,1.8-4.1,4-4.1c1.2,0,2.4,0.5,3.2,1.3
	l-1.1,1.2c-0.6-0.6-1.2-0.9-2-0.9c-1.3,0-2.3,1.1-2.3,2.6c0,1.5,1,2.6,2.4,2.6C62.7,99.3,63.4,99,63.9,98.5z"/>
<path class="st2" d="M65.8,96.8c0-2.3,1.6-4.1,3.7-4.1c0.9,0,1.8,0.4,2.4,1.1v-1h1.8v11.4h-1.8v-4.5c-0.6,0.7-1.5,1.1-2.4,1.1
	C67.4,100.9,65.8,99.1,65.8,96.8z M70,99.3c0.8,0,1.4-0.3,1.9-0.9v-3.4c-0.5-0.5-1.2-0.9-1.9-0.9c-1.4,0-2.4,1.1-2.4,2.6
	C67.6,98.2,68.6,99.3,70,99.3z"/>
<path class="st2" d="M77.7,97.5c0,1.2,0.7,1.9,1.8,1.9c0.7,0,1.3-0.3,1.8-1v-5.7H83v8h-1.8v-1.3c-0.6,0.9-1.5,1.5-2.6,1.5
	c-1.6,0-2.8-1.2-2.8-2.9v-5.3h1.8V97.5z"/>
<path class="st2" d="M85,90c0-0.6,0.5-1.1,1.1-1.1c0.6,0,1.1,0.5,1.1,1.1c0,0.6-0.5,1.1-1.1,1.1C85.5,91.1,85,90.7,85,90z
	 M87.1,100.8h-1.8v-8h1.8V100.8z"/>
<path class="st2" d="M89.4,98.6c1,0.7,1.8,0.9,2.6,0.9c1,0,1.6-0.4,1.6-1.1c0-0.5-0.3-0.8-1.1-0.9l-1.4-0.2c-1.6-0.3-2.3-1-2.3-2.2
	c0-1.5,1.2-2.5,3.1-2.5c1.1,0,2.1,0.3,3.2,1l-0.8,1.2c-0.8-0.5-1.6-0.8-2.4-0.8c-0.8,0-1.4,0.4-1.4,0.9c0,0.5,0.3,0.7,1.1,0.9
	l1.4,0.3c1.6,0.3,2.4,1,2.4,2.2c0,1.5-1.4,2.6-3.3,2.6c-1.4,0-2.6-0.4-3.5-1.1L89.4,98.6z"/>
<path class="st2" d="M96.7,90c0-0.6,0.5-1.1,1.1-1.1c0.6,0,1.1,0.5,1.1,1.1c0,0.6-0.5,1.1-1.1,1.1C97.2,91.1,96.7,90.7,96.7,90z
	 M98.8,100.8h-1.8v-8h1.8V100.8z"/>
<path class="st2" d="M102,94.2h-1.6v-1.4h1.6v-2.2l1.8-0.4v2.6h2.2v1.4h-2.2v4.1c0,0.8,0.3,1.1,1.1,1.1c0.4,0,0.6,0,1.1-0.2v1.5
	c-0.5,0.1-1.1,0.2-1.6,0.2c-1.6,0-2.5-0.8-2.5-2.2V94.2z"/>
<path class="st2" d="M107.4,90c0-0.6,0.5-1.1,1.1-1.1c0.6,0,1.1,0.5,1.1,1.1c0,0.6-0.5,1.1-1.1,1.1C107.9,91.1,107.4,90.7,107.4,90z
	 M109.4,100.8h-1.8v-8h1.8V100.8z"/>
<path class="st2" d="M115.3,92.6c2.3,0,4,1.8,4,4.1c0,2.4-1.7,4.2-4,4.2c-2.3,0-4-1.8-4-4.2C111.3,94.4,113,92.6,115.3,92.6z
	 M117.5,96.8c0-1.5-0.9-2.6-2.2-2.6c-1.3,0-2.2,1.1-2.2,2.6c0,1.5,0.9,2.6,2.2,2.6S117.5,98.3,117.5,96.8z"/>
<path class="st2" d="M121.2,92.8h1.8v1.3c0.6-0.9,1.5-1.4,2.5-1.4c1.6,0,2.8,1.2,2.8,2.9v5.3h-1.8V96c0-1.2-0.7-1.9-1.8-1.9
	c-0.7,0-1.3,0.3-1.7,1v5.7h-1.8V92.8z"/>
<path class="st2" d="M10.4,117.7c0-1.4,1.2-2.4,3.1-2.4c0.8,0,1.4,0.2,2.2,0.5v-0.9c0-1.1-0.6-1.6-1.8-1.6c-0.7,0-1.4,0.2-2.3,0.6
	l-0.6-1.3c1.2-0.6,2.3-0.8,3.3-0.8c2.1,0,3.3,1.1,3.3,2.9v5.2h-1.8v-0.8c-0.7,0.7-1.5,0.9-2.4,0.9C11.6,120.1,10.4,119.1,10.4,117.7
	z M13.8,118.9c0.7,0,1.3-0.2,1.9-0.7v-1.3c-0.6-0.3-1.2-0.4-1.9-0.4c-1,0-1.7,0.4-1.7,1.2C12.1,118.4,12.8,118.9,13.8,118.9z"/>
<path class="st2" d="M19.6,112h1.8v1.3c0.6-0.9,1.5-1.4,2.5-1.4c1.6,0,2.8,1.2,2.8,2.9v5.3h-1.8v-4.8c0-1.2-0.7-1.9-1.8-1.9
	c-0.7,0-1.3,0.3-1.7,1v5.7h-1.8V112z"/>
<path class="st2" d="M34.7,118.9c-0.6,0.7-1.5,1.2-2.5,1.2c-2,0-3.6-1.8-3.6-4.1c0-2.3,1.6-4.1,3.7-4.1c0.9,0,1.7,0.4,2.3,1.1v-4.4
	l1.8-0.3V120h-1.8V118.9z M32.7,118.5c0.8,0,1.4-0.3,1.9-0.9v-3.4c-0.5-0.5-1.2-0.9-1.9-0.9c-1.4,0-2.4,1.1-2.4,2.6
	C30.4,117.4,31.4,118.5,32.7,118.5z"/>
<path class="st2" d="M42.3,112h1.8v1.2c0.6-0.8,1.5-1.2,2.5-1.2c2,0,3.6,1.8,3.6,4.1c0,2.3-1.6,4.1-3.8,4.1c-0.9,0-1.8-0.4-2.3-1
	v4.4h-1.8V112z M44.1,114.3v3.3c0.5,0.6,1.2,0.9,1.9,0.9c1.4,0,2.4-1.1,2.4-2.6c0-1.5-1-2.6-2.4-2.6
	C45.2,113.4,44.6,113.7,44.1,114.3z"/>
<path class="st2" d="M51.9,112h1.8v1.7c0.4-1.2,1.2-1.9,2.2-1.9c0.3,0,0.5,0,0.8,0.2v1.6c-0.3-0.1-0.7-0.2-1-0.2
	c-0.9,0-1.6,0.5-2,1.3v5.3h-1.8V112z"/>
<path class="st2" d="M61.4,120.2c-2.3,0-4.1-1.8-4.1-4.2c0-2.4,1.7-4.1,3.9-4.1c2.2,0,3.8,1.7,3.8,4.1v0.4h-5.9
	c0.2,1.3,1.2,2.2,2.4,2.2c0.8,0,1.5-0.3,1.9-0.8l1.2,1.1C63.7,119.8,62.7,120.2,61.4,120.2z M59.2,115.3h4.2c-0.2-1.2-1-2-2.1-2
	C60.2,113.3,59.4,114.1,59.2,115.3z"/>
<path class="st2" d="M66.9,112h1.8v1.2c0.6-0.8,1.5-1.2,2.5-1.2c2,0,3.6,1.8,3.6,4.1c0,2.3-1.6,4.1-3.8,4.1c-0.9,0-1.8-0.4-2.3-1
	v4.4h-1.8V112z M68.7,114.3v3.3c0.5,0.6,1.2,0.9,1.9,0.9c1.4,0,2.4-1.1,2.4-2.6c0-1.5-1-2.6-2.4-2.6
	C69.8,113.4,69.1,113.7,68.7,114.3z"/>
<path class="st2" d="M76.3,117.7c0-1.4,1.2-2.4,3.1-2.4c0.8,0,1.4,0.2,2.2,0.5v-0.9c0-1.1-0.6-1.6-1.8-1.6c-0.7,0-1.4,0.2-2.3,0.6
	l-0.6-1.3c1.2-0.6,2.3-0.8,3.3-0.8c2.1,0,3.3,1.1,3.3,2.9v5.2h-1.8v-0.8c-0.7,0.7-1.5,0.9-2.4,0.9C77.4,120.1,76.3,119.1,76.3,117.7
	z M79.6,118.9c0.7,0,1.3-0.2,1.9-0.7v-1.3c-0.6-0.3-1.2-0.4-1.9-0.4c-1,0-1.7,0.4-1.7,1.2C78,118.4,78.6,118.9,79.6,118.9z"/>
<path class="st2" d="M85.5,112h1.8v1.7c0.4-1.2,1.2-1.9,2.2-1.9c0.3,0,0.5,0,0.8,0.2v1.6c-0.3-0.1-0.7-0.2-1-0.2
	c-0.9,0-1.6,0.5-2,1.3v5.3h-1.8V112z"/>
<path class="st2" d="M91,117.7c0-1.4,1.2-2.4,3.1-2.4c0.8,0,1.4,0.2,2.2,0.5v-0.9c0-1.1-0.6-1.6-1.8-1.6c-0.7,0-1.4,0.2-2.3,0.6
	l-0.6-1.3c1.2-0.6,2.3-0.8,3.3-0.8c2.1,0,3.3,1.1,3.3,2.9v5.2h-1.8v-0.8c-0.7,0.7-1.5,0.9-2.4,0.9C92.2,120.1,91,119.1,91,117.7z
	 M94.4,118.9c0.7,0,1.3-0.2,1.9-0.7v-1.3c-0.6-0.3-1.2-0.4-1.9-0.4c-1,0-1.7,0.4-1.7,1.2C92.7,118.4,93.4,118.9,94.4,118.9z"/>
<path class="st2" d="M100.9,113.4h-1.6V112h1.6v-2.2l1.8-0.4v2.6h2.2v1.4h-2.2v4.1c0,0.8,0.3,1.1,1.1,1.1c0.4,0,0.6,0,1.1-0.2v1.5
	c-0.5,0.1-1.1,0.2-1.6,0.2c-1.6,0-2.5-0.8-2.5-2.2V113.4z"/>
<path class="st2" d="M106.4,109.2c0-0.6,0.5-1.1,1.1-1.1c0.6,0,1.1,0.5,1.1,1.1c0,0.6-0.5,1.1-1.1,1.1
	C106.8,110.3,106.4,109.9,106.4,109.2z M108.4,120h-1.8v-8h1.8V120z"/>
<path class="st2" d="M114.3,111.8c2.3,0,4,1.8,4,4.1c0,2.4-1.7,4.2-4,4.2c-2.3,0-4-1.8-4-4.2C110.2,113.6,112,111.8,114.3,111.8z
	 M116.5,116c0-1.5-0.9-2.6-2.2-2.6c-1.3,0-2.2,1.1-2.2,2.6c0,1.5,0.9,2.6,2.2,2.6S116.5,117.5,116.5,116z"/>
<path class="st2" d="M120.2,112h1.8v1.3c0.6-0.9,1.5-1.4,2.5-1.4c1.6,0,2.8,1.2,2.8,2.9v5.3h-1.8v-4.8c0-1.2-0.7-1.9-1.8-1.9
	c-0.7,0-1.3,0.3-1.7,1v5.7h-1.8V112z"/>
<path class="st2" d="M224.2,92v8.8h-1.8V89.6h2.5l3.3,6.8l3.3-6.8h2.5v11.2h-1.8v-8.7l-4,7.9L224.2,92z"/>
<path class="st2" d="M236.6,89.6h1.9v9.5h6v1.7h-7.9V89.6z"/>
<path class="st2" d="M250,92.8h1.8v1.3c0.6-0.9,1.4-1.4,2.4-1.4c1.1,0,1.9,0.6,2.4,1.6c0.6-1,1.5-1.6,2.7-1.6c1.6,0,2.6,1.2,2.6,2.9
	v5.2H260v-4.8c0-1.1-0.6-1.8-1.6-1.8c-0.7,0-1.2,0.3-1.6,0.9c0,0.2,0,0.3,0,0.5v5.2H255v-4.8c0-1.1-0.6-1.8-1.6-1.8
	c-0.6,0-1.2,0.3-1.6,0.9v5.8H250V92.8z"/>
<path class="st2" d="M267.7,92.6c2.3,0,4,1.8,4,4.1c0,2.4-1.7,4.2-4,4.2c-2.3,0-4-1.8-4-4.2C263.7,94.4,265.4,92.6,267.7,92.6z
	 M269.9,96.8c0-1.5-0.9-2.6-2.2-2.6c-1.3,0-2.2,1.1-2.2,2.6c0,1.5,0.9,2.6,2.2,2.6S269.9,98.3,269.9,96.8z"/>
<path class="st2" d="M279.4,99.7c-0.6,0.7-1.5,1.2-2.5,1.2c-2,0-3.6-1.8-3.6-4.1c0-2.3,1.6-4.1,3.7-4.1c0.9,0,1.7,0.4,2.3,1.1v-4.4
	l1.8-0.3v11.7h-1.8V99.7z M277.5,99.3c0.8,0,1.4-0.3,1.9-0.9v-3.4c-0.5-0.5-1.2-0.9-1.9-0.9c-1.4,0-2.4,1.1-2.4,2.6
	C275.1,98.2,276.1,99.3,277.5,99.3z"/>
<path class="st2" d="M287.1,101c-2.3,0-4.1-1.8-4.1-4.2c0-2.4,1.7-4.1,3.9-4.1c2.2,0,3.8,1.7,3.8,4.1v0.4h-5.9
	c0.2,1.3,1.2,2.2,2.4,2.2c0.8,0,1.5-0.3,1.9-0.8l1.2,1.1C289.3,100.6,288.4,101,287.1,101z M284.8,96.1h4.2c-0.2-1.2-1-2-2.1-2
	C285.9,94.1,285.1,94.9,284.8,96.1z"/>
<path class="st2" d="M294.4,100.8h-1.8V89.3l1.8-0.3V100.8z"/>
<path class="st2" d="M296.4,90c0-0.6,0.5-1.1,1.1-1.1c0.6,0,1.1,0.5,1.1,1.1c0,0.6-0.5,1.1-1.1,1.1C296.9,91.1,296.4,90.7,296.4,90z
	 M298.4,100.8h-1.8v-8h1.8V100.8z"/>
<path class="st2" d="M300.6,92.8h1.8v1.3c0.6-0.9,1.5-1.4,2.5-1.4c1.6,0,2.8,1.2,2.8,2.9v5.3h-1.8V96c0-1.2-0.7-1.9-1.8-1.9
	c-0.7,0-1.3,0.3-1.7,1v5.7h-1.8V92.8z"/>
<path class="st2" d="M309.6,96.8c0-2.3,1.6-4.1,3.7-4.1c0.9,0,1.8,0.4,2.4,1.1v-1h1.8v8.3c0,2.1-1.3,3.2-3.8,3.2
	c-1.2,0-2.3-0.3-3.2-0.8l0.6-1.3c0.9,0.5,1.7,0.7,2.5,0.7c1.3,0,2-0.6,2-1.8v-1.4c-0.6,0.7-1.5,1.1-2.4,1.1
	C311.2,100.8,309.6,99,309.6,96.8z M313.8,99.3c0.8,0,1.4-0.3,1.9-0.9v-3.4c-0.5-0.5-1.2-0.9-1.9-0.9c-1.4,0-2.4,1.1-2.4,2.5
	C311.4,98.2,312.4,99.3,313.8,99.3z"/>
<path class="st2" d="M449.3,92v8.8h-1.8V89.6h2.5l3.3,6.8l3.3-6.8h2.5v11.2h-1.8v-8.7l-4,7.9L449.3,92z"/>
<path class="st2" d="M461.8,89.6h1.9v9.5h6v1.7h-7.9V89.6z"/>
<path class="st2" d="M475.1,92.8h1.8v1.3c0.6-0.9,1.4-1.4,2.4-1.4c1.1,0,1.9,0.6,2.4,1.6c0.6-1,1.5-1.6,2.7-1.6
	c1.6,0,2.6,1.2,2.6,2.9v5.2h-1.8v-4.8c0-1.1-0.6-1.8-1.6-1.8c-0.7,0-1.2,0.3-1.6,0.9c0,0.2,0,0.3,0,0.5v5.2h-1.8v-4.8
	c0-1.1-0.6-1.8-1.6-1.8c-0.6,0-1.2,0.3-1.6,0.9v5.8h-1.8V92.8z"/>
<path class="st2" d="M492.8,92.6c2.3,0,4,1.8,4,4.1c0,2.4-1.7,4.2-4,4.2s-4-1.8-4-4.2C488.8,94.4,490.5,92.6,492.8,92.6z
	 M495.1,96.8c0-1.5-0.9-2.6-2.2-2.6c-1.3,0-2.2,1.1-2.2,2.6c0,1.5,0.9,2.6,2.2,2.6S495.1,98.3,495.1,96.8z"/>
<path class="st2" d="M504.5,99.7c-0.6,0.7-1.5,1.2-2.5,1.2c-2,0-3.6-1.8-3.6-4.1c0-2.3,1.6-4.1,3.7-4.1c0.9,0,1.7,0.4,2.3,1.1v-4.4
	l1.8-0.3v11.7h-1.8V99.7z M502.6,99.3c0.8,0,1.4-0.3,1.9-0.9v-3.4c-0.5-0.5-1.2-0.9-1.9-0.9c-1.4,0-2.4,1.1-2.4,2.6
	C500.2,98.2,501.2,99.3,502.6,99.3z"/>
<path class="st2" d="M512.2,101c-2.3,0-4.1-1.8-4.1-4.2c0-2.4,1.7-4.1,3.9-4.1c2.2,0,3.8,1.7,3.8,4.1v0.4h-5.9
	c0.2,1.3,1.2,2.2,2.4,2.2c0.8,0,1.5-0.3,1.9-0.8l1.2,1.1C514.4,100.6,513.5,101,512.2,101z M510,96.1h4.2c-0.2-1.2-1-2-2.1-2
	C511,94.1,510.2,94.9,510,96.1z"/>
<path class="st2" d="M519.5,100.8h-1.8V89.3l1.8-0.3V100.8z"/>
<path class="st2" d="M445.5,118.9c-0.6,0.7-1.5,1.2-2.5,1.2c-2,0-3.6-1.8-3.6-4.1c0-2.3,1.6-4.1,3.7-4.1c0.9,0,1.7,0.4,2.3,1.1v-4.4
	l1.8-0.3V120h-1.8V118.9z M443.6,118.5c0.8,0,1.4-0.3,1.9-0.9v-3.4c-0.5-0.5-1.2-0.9-1.9-0.9c-1.4,0-2.4,1.1-2.4,2.6
	C441.2,117.4,442.2,118.5,443.6,118.5z"/>
<path class="st2" d="M453.3,120.2c-2.3,0-4.1-1.8-4.1-4.2c0-2.4,1.7-4.1,3.9-4.1c2.2,0,3.8,1.7,3.8,4.1v0.4h-5.9
	c0.2,1.3,1.2,2.2,2.4,2.2c0.8,0,1.5-0.3,1.9-0.8l1.2,1.1C455.5,119.8,454.5,120.2,453.3,120.2z M451,115.3h4.2c-0.2-1.2-1-2-2.1-2
	S451.2,114.1,451,115.3z"/>
<path class="st2" d="M458.7,112h1.8v1.2c0.6-0.8,1.5-1.2,2.5-1.2c2,0,3.6,1.8,3.6,4.1c0,2.3-1.6,4.1-3.8,4.1c-0.9,0-1.8-0.4-2.3-1
	v4.4h-1.8V112z M460.5,114.3v3.3c0.5,0.6,1.2,0.9,1.9,0.9c1.4,0,2.4-1.1,2.4-2.6c0-1.5-1-2.6-2.4-2.6
	C461.6,113.4,461,113.7,460.5,114.3z"/>
<path class="st2" d="M470.3,120h-1.8v-11.4l1.8-0.3V120z"/>
<path class="st2" d="M476,111.8c2.3,0,4,1.8,4,4.1c0,2.4-1.7,4.2-4,4.2s-4-1.8-4-4.2C471.9,113.6,473.7,111.8,476,111.8z M478.2,116
	c0-1.5-0.9-2.6-2.2-2.6c-1.3,0-2.2,1.1-2.2,2.6c0,1.5,0.9,2.6,2.2,2.6S478.2,117.5,478.2,116z"/>
<path class="st2" d="M483.6,120l-3-8.1h2l2,6l2.2-6h2l-3.8,9.3c-0.6,1.5-1.4,2.1-2.8,2.1c-0.3,0-0.6,0-0.9-0.1v-1.6
	c0.4,0,0.5,0.1,0.7,0.1c0.6,0,1-0.3,1.3-0.9L483.6,120z"/>
<path class="st2" d="M490.1,112h1.8v1.3c0.6-0.9,1.4-1.4,2.4-1.4c1.1,0,1.9,0.6,2.4,1.6c0.6-1,1.5-1.6,2.7-1.6
	c1.6,0,2.6,1.2,2.6,2.9v5.2h-1.8v-4.8c0-1.1-0.6-1.8-1.6-1.8c-0.7,0-1.2,0.3-1.6,0.9c0,0.2,0,0.3,0,0.5v5.2h-1.8v-4.8
	c0-1.1-0.6-1.8-1.6-1.8c-0.6,0-1.2,0.3-1.6,0.9v5.8h-1.8V112z"/>
<path class="st2" d="M507.8,120.2c-2.3,0-4.1-1.8-4.1-4.2c0-2.4,1.7-4.1,3.9-4.1c2.2,0,3.8,1.7,3.8,4.1v0.4h-5.9
	c0.2,1.3,1.2,2.2,2.4,2.2c0.8,0,1.5-0.3,1.9-0.8l1.2,1.1C510,119.8,509.1,120.2,507.8,120.2z M505.6,115.3h4.2c-0.2-1.2-1-2-2.1-2
	C506.6,113.3,505.8,114.1,505.6,115.3z"/>
<path class="st2" d="M513.4,112h1.8v1.3c0.6-0.9,1.5-1.4,2.5-1.4c1.6,0,2.8,1.2,2.8,2.9v5.3h-1.8v-4.8c0-1.2-0.7-1.9-1.8-1.9
	c-0.7,0-1.3,0.3-1.7,1v5.7h-1.8V112z"/>
<path class="st2" d="M523.3,113.4h-1.6V112h1.6v-2.2l1.8-0.4v2.6h2.2v1.4h-2.2v4.1c0,0.8,0.3,1.1,1.1,1.1c0.4,0,0.6,0,1.1-0.2v1.5
	c-0.5,0.1-1.1,0.2-1.6,0.2c-1.6,0-2.5-0.8-2.5-2.2V113.4z"/>
<g class="st3">
	<path class="st2" d="M629.6,92v8.8h-1.8V89.6h2.5l3.3,6.8l3.3-6.8h2.5v11.2h-1.8v-8.7l-4,7.9L629.6,92z"/>
	<path class="st2" d="M642.1,89.6h1.9v9.5h6v1.7h-7.9V89.6z"/>
	<path class="st2" d="M655.4,92.8h1.8v1.3c0.6-0.9,1.4-1.4,2.4-1.4c1.1,0,1.9,0.6,2.4,1.6c0.6-1,1.5-1.6,2.7-1.6
		c1.6,0,2.6,1.2,2.6,2.9v5.2h-1.8v-4.8c0-1.1-0.6-1.8-1.6-1.8c-0.7,0-1.2,0.3-1.6,0.9c0,0.2,0,0.3,0,0.5v5.2h-1.8v-4.8
		c0-1.1-0.6-1.8-1.6-1.8c-0.6,0-1.2,0.3-1.6,0.9v5.8h-1.8V92.8z"/>
	<path class="st2" d="M673.1,92.6c2.3,0,4,1.8,4,4.1c0,2.4-1.7,4.2-4,4.2s-4-1.8-4-4.2C669.1,94.4,670.8,92.6,673.1,92.6z
		 M675.4,96.8c0-1.5-0.9-2.6-2.2-2.6c-1.3,0-2.2,1.1-2.2,2.6c0,1.5,0.9,2.6,2.2,2.6S675.4,98.3,675.4,96.8z"/>
	<path class="st2" d="M684.8,99.7c-0.6,0.7-1.5,1.2-2.5,1.2c-2,0-3.6-1.8-3.6-4.1c0-2.3,1.6-4.1,3.7-4.1c0.9,0,1.7,0.4,2.3,1.1v-4.4
		l1.8-0.3v11.7h-1.8V99.7z M682.9,99.3c0.8,0,1.4-0.3,1.9-0.9v-3.4c-0.5-0.5-1.2-0.9-1.9-0.9c-1.4,0-2.4,1.1-2.4,2.6
		C680.5,98.2,681.5,99.3,682.9,99.3z"/>
	<path class="st2" d="M692.5,101c-2.3,0-4.1-1.8-4.1-4.2c0-2.4,1.7-4.1,3.9-4.1c2.2,0,3.8,1.7,3.8,4.1v0.4h-5.9
		c0.2,1.3,1.2,2.2,2.4,2.2c0.8,0,1.5-0.3,1.9-0.8l1.2,1.1C694.7,100.6,693.8,101,692.5,101z M690.3,96.1h4.2c-0.2-1.2-1-2-2.1-2
		C691.3,94.1,690.5,94.9,690.3,96.1z"/>
	<path class="st2" d="M699.8,100.8H698V89.3l1.8-0.3V100.8z"/>
	<path class="st2" d="M705.6,92.8h1.8v1.3c0.6-0.9,1.4-1.4,2.4-1.4c1.1,0,1.9,0.6,2.4,1.6c0.6-1,1.5-1.6,2.7-1.6
		c1.6,0,2.6,1.2,2.6,2.9v5.2h-1.8v-4.8c0-1.1-0.6-1.8-1.6-1.8c-0.7,0-1.2,0.3-1.6,0.9c0,0.2,0,0.3,0,0.5v5.2h-1.8v-4.8
		c0-1.1-0.6-1.8-1.6-1.8c-0.6,0-1.2,0.3-1.6,0.9v5.8h-1.8V92.8z"/>
	<path class="st2" d="M723.3,92.6c2.3,0,4,1.8,4,4.1c0,2.4-1.7,4.2-4,4.2s-4-1.8-4-4.2C719.3,94.4,721,92.6,723.3,92.6z M725.5,96.8
		c0-1.5-0.9-2.6-2.2-2.6c-1.3,0-2.2,1.1-2.2,2.6c0,1.5,0.9,2.6,2.2,2.6S725.5,98.3,725.5,96.8z"/>
	<path class="st2" d="M729.2,92.8h1.8v1.3c0.6-0.9,1.5-1.4,2.5-1.4c1.6,0,2.8,1.2,2.8,2.9v5.3h-1.8V96c0-1.2-0.7-1.9-1.8-1.9
		c-0.7,0-1.3,0.3-1.7,1v5.7h-1.8V92.8z"/>
	<path class="st2" d="M738.3,90c0-0.6,0.5-1.1,1.1-1.1c0.6,0,1.1,0.5,1.1,1.1c0,0.6-0.5,1.1-1.1,1.1C738.8,91.1,738.3,90.7,738.3,90
		z M740.3,100.8h-1.8v-8h1.8V100.8z"/>
</g>
<g class="st3">
	<path class="st2" d="M743.1,94.2h-1.6v-1.4h1.6v-2.2l1.8-0.4v2.6h2.2v1.4h-2.2v4.1c0,0.8,0.3,1.1,1.1,1.1c0.4,0,0.6,0,1.1-0.2v1.5
		c-0.5,0.1-1.1,0.2-1.6,0.2c-1.6,0-2.5-0.8-2.5-2.2V94.2z"/>
</g>
<g class="st3">
	<path class="st2" d="M752.2,92.6c2.3,0,4,1.8,4,4.1c0,2.4-1.7,4.2-4,4.2s-4-1.8-4-4.2C748.2,94.4,750,92.6,752.2,92.6z M754.5,96.8
		c0-1.5-0.9-2.6-2.2-2.6c-1.3,0-2.2,1.1-2.2,2.6c0,1.5,0.9,2.6,2.2,2.6S754.5,98.3,754.5,96.8z"/>
	<path class="st2" d="M758.1,92.8h1.8v1.7c0.4-1.2,1.2-1.9,2.2-1.9c0.3,0,0.5,0,0.8,0.2v1.6c-0.3-0.1-0.7-0.2-1-0.2
		c-0.9,0-1.6,0.5-2,1.3v5.3h-1.8V92.8z"/>
	<path class="st2" d="M764.2,90c0-0.6,0.5-1.1,1.1-1.1c0.6,0,1.1,0.5,1.1,1.1c0,0.6-0.5,1.1-1.1,1.1C764.7,91.1,764.2,90.7,764.2,90
		z M766.2,100.8h-1.8v-8h1.8V100.8z"/>
	<path class="st2" d="M768.5,92.8h1.8v1.3c0.6-0.9,1.5-1.4,2.5-1.4c1.6,0,2.8,1.2,2.8,2.9v5.3h-1.8V96c0-1.2-0.7-1.9-1.8-1.9
		c-0.7,0-1.3,0.3-1.7,1v5.7h-1.8V92.8z"/>
	<path class="st2" d="M777.4,96.8c0-2.3,1.6-4.1,3.7-4.1c0.9,0,1.8,0.4,2.4,1.1v-1h1.8v8.3c0,2.1-1.3,3.2-3.8,3.2
		c-1.2,0-2.3-0.3-3.2-0.8l0.6-1.3c0.9,0.5,1.7,0.7,2.5,0.7c1.3,0,2-0.6,2-1.8v-1.4c-0.6,0.7-1.5,1.1-2.4,1.1
		C779,100.8,777.4,99,777.4,96.8z M781.6,99.3c0.8,0,1.4-0.3,1.9-0.9v-3.4c-0.5-0.5-1.2-0.9-1.9-0.9c-1.4,0-2.4,1.1-2.4,2.5
		C779.2,98.2,780.2,99.3,781.6,99.3z"/>
</g>
<g class="st3">
	<path class="st2" d="M642.1,117.7c0-1.4,1.2-2.4,3.1-2.4c0.8,0,1.4,0.2,2.2,0.5v-0.9c0-1.1-0.6-1.6-1.8-1.6c-0.7,0-1.4,0.2-2.3,0.6
		l-0.6-1.3c1.2-0.6,2.3-0.8,3.3-0.8c2.1,0,3.3,1.1,3.3,2.9v5.2h-1.8v-0.8c-0.7,0.7-1.5,0.9-2.4,0.9
		C643.3,120.1,642.1,119.1,642.1,117.7z M645.5,118.9c0.7,0,1.3-0.2,1.9-0.7v-1.3c-0.6-0.3-1.2-0.4-1.9-0.4c-1,0-1.7,0.4-1.7,1.2
		C643.8,118.4,644.5,118.9,645.5,118.9z"/>
	<path class="st2" d="M651.3,112h1.8v1.3c0.6-0.9,1.5-1.4,2.5-1.4c1.6,0,2.8,1.2,2.8,2.9v5.3h-1.8v-4.8c0-1.2-0.7-1.9-1.8-1.9
		c-0.7,0-1.3,0.3-1.7,1v5.7h-1.8V112z"/>
	<path class="st2" d="M666.4,118.9c-0.6,0.7-1.5,1.2-2.5,1.2c-2,0-3.6-1.8-3.6-4.1c0-2.3,1.6-4.1,3.7-4.1c0.9,0,1.7,0.4,2.3,1.1
		v-4.4l1.8-0.3V120h-1.8V118.9z M664.5,118.5c0.8,0,1.4-0.3,1.9-0.9v-3.4c-0.5-0.5-1.2-0.9-1.9-0.9c-1.4,0-2.4,1.1-2.4,2.6
		C662.1,117.4,663.1,118.5,664.5,118.5z"/>
	<path class="st2" d="M674,112h1.8v1.3c0.6-0.9,1.4-1.4,2.4-1.4c1.1,0,1.9,0.6,2.4,1.6c0.6-1,1.5-1.6,2.7-1.6c1.6,0,2.6,1.2,2.6,2.9
		v5.2H684v-4.8c0-1.1-0.6-1.8-1.6-1.8c-0.7,0-1.2,0.3-1.6,0.9c0,0.2,0,0.3,0,0.5v5.2H679v-4.8c0-1.1-0.6-1.8-1.6-1.8
		c-0.6,0-1.2,0.3-1.6,0.9v5.8H674V112z"/>
	<path class="st2" d="M687.6,117.7c0-1.4,1.2-2.4,3.1-2.4c0.8,0,1.4,0.2,2.2,0.5v-0.9c0-1.1-0.6-1.6-1.8-1.6c-0.7,0-1.4,0.2-2.3,0.6
		l-0.6-1.3c1.2-0.6,2.3-0.8,3.3-0.8c2.1,0,3.3,1.1,3.3,2.9v5.2h-1.8v-0.8c-0.7,0.7-1.5,0.9-2.4,0.9
		C688.8,120.1,687.6,119.1,687.6,117.7z M690.9,118.9c0.7,0,1.3-0.2,1.9-0.7v-1.3c-0.6-0.3-1.2-0.4-1.9-0.4c-1,0-1.7,0.4-1.7,1.2
		C689.3,118.4,690,118.9,690.9,118.9z"/>
	<path class="st2" d="M696.8,112h1.8v1.3c0.6-0.9,1.5-1.4,2.5-1.4c1.6,0,2.8,1.2,2.8,2.9v5.3h-1.8v-4.8c0-1.2-0.7-1.9-1.8-1.9
		c-0.7,0-1.3,0.3-1.7,1v5.7h-1.8V112z"/>
	<path class="st2" d="M705.7,117.7c0-1.4,1.2-2.4,3.1-2.4c0.8,0,1.4,0.2,2.2,0.5v-0.9c0-1.1-0.6-1.6-1.8-1.6c-0.7,0-1.4,0.2-2.3,0.6
		l-0.6-1.3c1.2-0.6,2.3-0.8,3.3-0.8c2.1,0,3.3,1.1,3.3,2.9v5.2h-1.8v-0.8c-0.7,0.7-1.5,0.9-2.4,0.9
		C706.9,120.1,705.7,119.1,705.7,117.7z M709.1,118.9c0.7,0,1.3-0.2,1.9-0.7v-1.3c-0.6-0.3-1.2-0.4-1.9-0.4c-1,0-1.7,0.4-1.7,1.2
		C707.4,118.4,708.1,118.9,709.1,118.9z"/>
	<path class="st2" d="M714.6,116c0-2.3,1.6-4.1,3.7-4.1c0.9,0,1.8,0.4,2.4,1.1v-1h1.8v8.3c0,2.1-1.3,3.2-3.8,3.2
		c-1.2,0-2.3-0.3-3.2-0.8l0.6-1.3c0.9,0.5,1.7,0.7,2.5,0.7c1.3,0,2-0.6,2-1.8v-1.4c-0.6,0.7-1.5,1.1-2.4,1.1
		C716.2,120,714.6,118.2,714.6,116z M718.7,118.5c0.8,0,1.4-0.3,1.9-0.9v-3.4c-0.5-0.5-1.2-0.9-1.9-0.9c-1.4,0-2.4,1.1-2.4,2.5
		C716.4,117.4,717.4,118.5,718.7,118.5z"/>
	<path class="st2" d="M728.4,120.2c-2.3,0-4.1-1.8-4.1-4.2c0-2.4,1.7-4.1,3.9-4.1c2.2,0,3.8,1.7,3.8,4.1v0.4h-5.9
		c0.2,1.3,1.2,2.2,2.4,2.2c0.8,0,1.5-0.3,1.9-0.8l1.2,1.1C730.6,119.8,729.6,120.2,728.4,120.2z M726.1,115.3h4.2
		c-0.2-1.2-1-2-2.1-2S726.3,114.1,726.1,115.3z"/>
	<path class="st2" d="M733.8,112h1.8v1.3c0.6-0.9,1.4-1.4,2.4-1.4c1.1,0,1.9,0.6,2.4,1.6c0.6-1,1.5-1.6,2.7-1.6
		c1.6,0,2.6,1.2,2.6,2.9v5.2h-1.8v-4.8c0-1.1-0.6-1.8-1.6-1.8c-0.7,0-1.2,0.3-1.6,0.9c0,0.2,0,0.3,0,0.5v5.2h-1.8v-4.8
		c0-1.1-0.6-1.8-1.6-1.8c-0.6,0-1.2,0.3-1.6,0.9v5.8h-1.8V112z"/>
	<path class="st2" d="M751.6,120.2c-2.3,0-4.1-1.8-4.1-4.2c0-2.4,1.7-4.1,3.9-4.1c2.2,0,3.8,1.7,3.8,4.1v0.4h-5.9
		c0.2,1.3,1.2,2.2,2.4,2.2c0.8,0,1.5-0.3,1.9-0.8l1.2,1.1C753.8,119.8,752.8,120.2,751.6,120.2z M749.3,115.3h4.2
		c-0.2-1.2-1-2-2.1-2S749.5,114.1,749.3,115.3z"/>
</g>
<g class="st3">
	<path class="st2" d="M756.8,112h1.8v1.3c0.6-0.9,1.5-1.4,2.5-1.4c1.6,0,2.8,1.2,2.8,2.9v5.3h-1.8v-4.8c0-1.2-0.7-1.9-1.8-1.9
		c-0.7,0-1.3,0.3-1.7,1v5.7h-1.8V112z"/>
</g>
<g class="st3">
	<path class="st2" d="M766.8,113.4h-1.6V112h1.6v-2.2l1.8-0.4v2.6h2.2v1.4h-2.2v4.1c0,0.8,0.3,1.1,1.1,1.1c0.4,0,0.6,0,1.1-0.2v1.5
		c-0.5,0.1-1.1,0.2-1.6,0.2c-1.6,0-2.5-0.8-2.5-2.2V113.4z"/>
</g>
</svg>
